<svg width="21" height="21" viewBox="0 0 21 21" fill="none" xmlns="http://www.w3.org/2000/svg">
<path d="M10.3795 2.26514C7.43416 2.26514 5.04616 4.65314 5.04616 7.59847C5.04616 11.5985 9.71283 12.9318 9.71283 15.5985C9.71283 15.9665 10.0115 16.2651 10.3795 16.2651C10.7475 16.2651 11.0462 15.9665 11.0462 15.5985C11.0462 12.9318 15.7128 11.5985 15.7128 7.59847C15.7128 4.65314 13.3248 2.26514 10.3795 2.26514ZM10.3795 6.26514C11.1162 6.26514 11.7128 6.8618 11.7128 7.59847C11.7128 8.33514 11.1162 8.9318 10.3795 8.9318C9.64283 8.9318 9.04616 8.33514 9.04616 7.59847C9.04616 6.8618 9.64283 6.26514 10.3795 6.26514ZM4.37949 12.2651C4.10149 12.2651 3.85249 12.4381 3.75449 12.6974L1.75449 18.0308C1.67783 18.2361 1.70732 18.464 1.83132 18.644C1.95665 18.824 2.16083 18.9318 2.37949 18.9318H18.3795C18.5982 18.9318 18.803 18.824 18.9277 18.644C19.0523 18.4647 19.0812 18.2361 19.0045 18.0308L17.0045 12.6974C16.9065 12.4381 16.6575 12.2651 16.3795 12.2651H15.0618C14.6965 12.6731 14.3195 13.046 13.9641 13.3966C13.8941 13.4646 13.827 13.5318 13.7597 13.5985H15.9173L17.4173 17.5985H3.34173L4.84173 13.5985H6.99929C6.93195 13.5318 6.86549 13.4646 6.79616 13.3966C6.44016 13.046 6.06254 12.6731 5.6972 12.2651H4.37949Z" fill="#FBB039"/>
</svg>
