<svg width="21" height="21" viewBox="0 0 21 21" fill="none" xmlns="http://www.w3.org/2000/svg">
<path d="M11.1018 17.1755C11.2642 17.1707 11.4183 17.103 11.5315 16.9867L17.3649 11.1533C17.482 11.0361 17.5479 10.8772 17.5479 10.7114C17.5479 10.5457 17.482 10.3868 17.3649 10.2695L11.5315 4.4362C11.4739 4.37622 11.405 4.32833 11.3286 4.29534C11.2523 4.26235 11.1702 4.24493 11.087 4.24408C11.0039 4.24324 10.9214 4.25899 10.8444 4.29042C10.7674 4.32185 10.6975 4.36833 10.6387 4.42713C10.5799 4.48592 10.5334 4.55586 10.502 4.63285C10.4705 4.70983 10.4548 4.79232 10.4556 4.87547C10.4565 4.95861 10.4739 5.04076 10.5069 5.11709C10.5399 5.19342 10.5878 5.2624 10.6477 5.31999L15.4142 10.0864L3.17297 10.0864C3.09015 10.0853 3.00792 10.1006 2.93107 10.1314C2.85421 10.1623 2.78427 10.2082 2.72528 10.2663C2.6663 10.3245 2.61947 10.3938 2.5875 10.4702C2.55553 10.5466 2.53907 10.6286 2.53907 10.7114C2.53907 10.7943 2.55553 10.8763 2.5875 10.9527C2.61947 11.0291 2.6663 11.0984 2.72528 11.1565C2.78427 11.2147 2.85421 11.2605 2.93107 11.2914C3.00792 11.3223 3.09015 11.3376 3.17297 11.3364L15.4142 11.3364L10.6477 16.1029C10.5576 16.1907 10.496 16.3037 10.4711 16.4271C10.4462 16.5504 10.4592 16.6784 10.5082 16.7943C10.5573 16.9103 10.6402 17.0086 10.7461 17.0766C10.8521 17.1446 10.976 17.1791 11.1018 17.1755Z" fill="white"/>
</svg>
