<svg width="40" height="41" viewBox="0 0 40 41" fill="none" xmlns="http://www.w3.org/2000/svg">
<path d="M20.0004 38.8999C30.1473 38.8999 38.4004 30.6468 38.4004 20.4999C38.4004 10.353 30.1473 2.0999 20.0004 2.0999C9.85352 2.0999 1.60039 10.353 1.60039 20.4999C1.60039 30.6468 9.85352 38.8999 20.0004 38.8999ZM17.0348 13.0655C16.7223 12.753 16.7223 12.2468 17.0348 11.9343C17.191 11.778 17.3941 11.6999 17.6004 11.6999C17.8066 11.6999 18.0098 11.778 18.166 11.9343L26.166 19.9343C26.4785 20.2468 26.4785 20.753 26.166 21.0655L18.166 29.0655C17.8535 29.378 17.3473 29.378 17.0348 29.0655C16.7223 28.753 16.7223 28.2468 17.0348 27.9343L24.4691 20.4999L17.0348 13.0655Z" fill="#C9C9C9"/>
</svg>
