<svg width="33" height="33" viewBox="0 0 33 33" fill="none" xmlns="http://www.w3.org/2000/svg">
<path d="M2.03906 2.96045V4.96045H6.03906C6.46875 4.96045 6.83594 5.2417 6.97656 5.64795L8.84375 22.312C9.01562 23.8198 10.3125 24.9761 11.8281 24.9761H24.0391V22.9761H11.8281C11.3125 22.9761 10.8906 22.6011 10.8359 22.0933L10.7109 20.9761H23.3984C24.8203 20.9761 26.0625 19.9604 26.3438 18.5698L28.2578 8.97607H9.35937L8.92969 5.16357L8.89844 5.06982C8.51562 3.81982 7.35156 2.96826 6.03906 2.96045H2.03906ZM22.0391 24.9761C20.9375 24.9761 20.0391 25.8745 20.0391 26.9761C20.0391 28.0776 20.9375 28.9761 22.0391 28.9761C23.1406 28.9761 24.0391 28.0776 24.0391 26.9761C24.0391 25.8745 23.1406 24.9761 22.0391 24.9761ZM12.0391 24.9761C10.9375 24.9761 10.0391 25.8745 10.0391 26.9761C10.0391 28.0776 10.9375 28.9761 12.0391 28.9761C13.1406 28.9761 14.0391 28.0776 14.0391 26.9761C14.0391 25.8745 13.1406 24.9761 12.0391 24.9761ZM9.58594 10.9761H25.8203L24.3828 18.1714C24.2812 18.648 23.8828 18.9761 23.3984 18.9761H10.4844L9.58594 10.9761Z" fill="#3A3A3A"/>
</svg>
