<svg xmlns="http://www.w3.org/2000/svg" width="26" height="25" viewBox="0 0 26 25" fill="none">
<path d="M13.6178 12.5L9.93032 16.04C9.73631 16.2274 9.62741 16.4808 9.62741 16.745C9.62741 17.0092 9.73631 17.2626 9.93032 17.45C10.0272 17.5437 10.1424 17.6181 10.2693 17.6689C10.3962 17.7197 10.5324 17.7458 10.6699 17.7458C10.8074 17.7458 10.9436 17.7197 11.0705 17.6689C11.1974 17.6181 11.3127 17.5437 11.4095 17.45L15.8262 13.21C15.9238 13.117 16.0013 13.0064 16.0542 12.8846C16.1071 12.7627 16.1343 12.632 16.1343 12.5C16.1343 12.368 16.1071 12.2373 16.0542 12.1154C16.0013 11.9936 15.9238 11.883 15.8262 11.79L11.4095 7.49999C11.3122 7.40731 11.1967 7.33398 11.0698 7.28422C10.9429 7.23446 10.807 7.20923 10.6699 7.20999C10.5328 7.20923 10.3969 7.23446 10.27 7.28422C10.1431 7.33398 10.0277 7.40731 9.93032 7.49999C9.73631 7.68735 9.62741 7.9408 9.62741 8.20499C9.62741 8.46918 9.73631 8.72263 9.93032 8.90999L13.6178 12.5Z" fill="#FBB039"/>
</svg>