<svg width="21" height="21" viewBox="0 0 21 21" fill="none" xmlns="http://www.w3.org/2000/svg">
<path d="M10.3799 2.93164C5.9695 2.93164 2.37988 6.52126 2.37988 10.9316C2.37988 15.342 5.9695 18.9316 10.3799 18.9316C14.7903 18.9316 18.3799 15.342 18.3799 10.9316C18.3799 6.52126 14.7903 2.93164 10.3799 2.93164ZM9.71452 4.29753C9.72287 4.46841 9.7966 4.62954 9.92045 4.74758C10.0443 4.86561 10.2088 4.93151 10.3799 4.93164C10.551 4.93151 10.7155 4.86561 10.8393 4.74758C10.9632 4.62954 11.0369 4.46841 11.0452 4.29753C14.2016 4.60878 16.7027 7.10994 17.014 10.2663C16.8431 10.2746 16.682 10.3484 16.5639 10.4722C16.4459 10.5961 16.38 10.7606 16.3799 10.9316C16.38 11.1027 16.4459 11.2672 16.5639 11.3911C16.682 11.5149 16.8431 11.5887 17.014 11.597C16.7027 14.7533 14.2016 17.2545 11.0452 17.5658C11.0369 17.3949 10.9632 17.2337 10.8393 17.1157C10.7155 16.9977 10.551 16.9318 10.3799 16.9316C10.2088 16.9318 10.0443 16.9977 9.92045 17.1157C9.7966 17.2337 9.72287 17.3949 9.71452 17.5658C6.55818 17.2545 4.05702 14.7533 3.74577 11.597C3.91665 11.5887 4.07778 11.5149 4.19582 11.3911C4.31385 11.2672 4.37975 11.1027 4.37988 10.9316C4.37975 10.7606 4.31385 10.5961 4.19582 10.4722C4.07778 10.3484 3.91665 10.2746 3.74577 10.2663C4.05702 7.10994 6.55818 4.60878 9.71452 4.29753ZM10.3799 5.59831C7.43455 5.59831 5.04655 7.98631 5.04655 10.9316C5.04655 13.877 7.43455 16.265 10.3799 16.265C13.3252 16.265 15.7132 13.877 15.7132 10.9316C15.7132 7.98631 13.3252 5.59831 10.3799 5.59831ZM10.3799 6.93164C10.7485 6.93164 11.0465 7.23031 11.0465 7.59831V10.6556L12.8512 12.4603C13.1119 12.721 13.1119 13.1423 12.8512 13.403C12.7212 13.533 12.5505 13.5983 12.3799 13.5983C12.2092 13.5983 12.0385 13.533 11.9085 13.403L9.71322 11.2077V7.59831C9.71322 7.23031 10.0112 6.93164 10.3799 6.93164Z" fill="#FBB039"/>
</svg>
