<svg xmlns="http://www.w3.org/2000/svg" width="21" height="21" viewBox="0 0 21 21" fill="none">
<g clip-path="url(#clip0_4037_2461)">
<path d="M20.8083 10.3359C20.8083 4.8125 16.1596 0.335938 10.4237 0.335938C4.6878 0.335938 0.0390625 4.8125 0.0390625 10.3359C0.0390625 15.3281 3.83594 19.4648 8.80108 20.2148V13.2266H6.16436V10.3359H8.80108V8.13281C8.80108 5.62695 10.3507 4.24219 12.7237 4.24219C13.8595 4.24219 15.0481 4.4375 15.0481 4.4375V6.89844H13.7378C12.4479 6.89844 12.0463 7.66992 12.0463 8.46094V10.3359H14.9264L14.466 13.2266H12.0463V20.2148C17.0114 19.4648 20.8083 15.3281 20.8083 10.3359Z" fill="white"/>
</g>
<defs>
<clipPath id="clip0_4037_2461">
<rect width="20.7692" height="20" fill="white" transform="translate(0.0390625 0.335938)"/>
</clipPath>
</defs>
</svg>