<svg width="25" height="25" viewBox="0 0 25 25" fill="none" xmlns="http://www.w3.org/2000/svg">
<g clip-path="url(#clip0_6002_15197)">
<path d="M12.8359 24.976C19.4634 24.976 24.8359 19.6034 24.8359 12.976C24.8359 6.34853 19.4634 0.975952 12.8359 0.975952C6.20852 0.975952 0.835938 6.34853 0.835938 12.976C0.835938 19.6034 6.20852 24.976 12.8359 24.976Z" fill="#F0F0F0"/>
<path d="M12.3142 12.976H24.8359C24.8359 11.8929 24.6916 10.8436 24.4225 9.8455H12.3142V12.976Z" fill="#D80027"/>
<path d="M12.3142 6.71509H23.0746C22.3401 5.51641 21.4008 4.45689 20.3057 3.58464H12.3142V6.71509Z" fill="#D80027"/>
<path d="M12.8358 24.976C15.66 24.976 18.2557 23.9998 20.3056 22.3673H5.36597C7.41581 23.9998 10.0116 24.976 12.8358 24.976Z" fill="#D80027"/>
<path d="M2.59716 19.2368H23.0746C23.6643 18.2745 24.1217 17.2226 24.4225 16.1064H1.24927C1.55006 17.2226 2.00742 18.2745 2.59716 19.2368Z" fill="#D80027"/>
<path d="M6.39456 2.84992H7.48811L6.47092 3.58891L6.85947 4.78464L5.84233 4.04566L4.82519 4.78464L5.16081 3.75166C4.26522 4.49767 3.48025 5.3717 2.83337 6.34558H3.18377L2.53628 6.81597C2.43541 6.98425 2.33866 7.1552 2.24594 7.32869L2.55512 8.2803L1.97828 7.86119C1.83489 8.16498 1.70373 8.47562 1.58584 8.79273L1.92648 9.84123H3.18377L2.16658 10.5802L2.55512 11.776L1.53798 11.037L0.928703 11.4797C0.867719 11.9699 0.835938 12.4692 0.835938 12.976H12.8359C12.8359 6.34858 12.8359 5.56726 12.8359 0.975952C10.4654 0.975952 8.25555 1.66361 6.39456 2.84992ZM6.85947 11.776L5.84233 11.037L4.82519 11.776L5.21373 10.5802L4.19655 9.84123H5.45383L5.84233 8.6455L6.23083 9.84123H7.48811L6.47092 10.5802L6.85947 11.776ZM6.47092 7.08456L6.85947 8.2803L5.84233 7.54131L4.82519 8.2803L5.21373 7.08456L4.19655 6.34558H5.45383L5.84233 5.14984L6.23083 6.34558H7.48811L6.47092 7.08456ZM11.1638 11.776L10.1467 11.037L9.12953 11.776L9.51808 10.5802L8.50089 9.84123H9.75817L10.1467 8.6455L10.5352 9.84123H11.7925L10.7753 10.5802L11.1638 11.776ZM10.7753 7.08456L11.1638 8.2803L10.1467 7.54131L9.12953 8.2803L9.51808 7.08456L8.50089 6.34558H9.75817L10.1467 5.14984L10.5352 6.34558H11.7925L10.7753 7.08456ZM10.7753 3.58891L11.1638 4.78464L10.1467 4.04566L9.12953 4.78464L9.51808 3.58891L8.50089 2.84992H9.75817L10.1467 1.65419L10.5352 2.84992H11.7925L10.7753 3.58891Z" fill="#0052B4"/>
</g>
<defs>
<clipPath id="clip0_6002_15197">
<rect width="24" height="24" fill="white" transform="translate(0.835938 0.975952)"/>
</clipPath>
</defs>
</svg>
