<svg width="54" height="55" viewBox="0 0 54 55" fill="none" xmlns="http://www.w3.org/2000/svg">
<g clip-path="url(#clip0_4036_15235)">
<path d="M43.9917 35.7673C42.678 35.7673 41.4301 36.2818 40.4886 37.2123C39.5472 38.1537 39.0217 39.3798 39.0217 40.6935C39.0217 42.0071 39.5362 43.2332 40.4886 44.1746C41.441 45.1051 42.678 45.6196 43.9917 45.6196C46.6847 45.6196 48.8741 43.4083 48.8741 40.6935C48.8741 37.9786 46.6847 35.7673 43.9917 35.7673ZM43.9917 43.4302C42.481 43.4302 41.2111 42.1823 41.2111 40.6935C41.2111 39.2046 42.481 37.9567 43.9917 37.9567C45.4805 37.9567 46.6847 39.1828 46.6847 40.6935C46.6847 42.2042 45.4805 43.4302 43.9917 43.4302ZM45.2615 19.3575C45.0645 19.1714 44.8018 19.0729 44.5281 19.0729H38.9122C38.3101 19.0729 37.8175 19.5655 37.8175 20.1676V29.1443C37.8175 29.7463 38.3101 30.239 38.9122 30.239H47.8232C48.4253 30.239 48.9179 29.7463 48.9179 29.1443V23.1343C48.9179 22.8278 48.7865 22.5322 48.5566 22.3242L45.2615 19.3575ZM46.7285 28.0495H40.0069V21.2514H44.1011L46.7285 23.616V28.0495ZM17.2589 35.7673C15.9452 35.7673 14.6972 36.2818 13.7558 37.2123C12.8143 38.1537 12.2889 39.3798 12.2889 40.6935C12.2889 42.0071 12.8034 43.2332 13.7558 44.1746C14.7082 45.1051 15.9452 45.6196 17.2589 45.6196C19.9518 45.6196 22.1413 43.4083 22.1413 40.6935C22.1413 37.9786 19.9518 35.7673 17.2589 35.7673ZM17.2589 43.4302C15.7482 43.4302 14.4783 42.1823 14.4783 40.6935C14.4783 39.2046 15.7482 37.9567 17.2589 37.9567C18.7477 37.9567 19.9518 39.1828 19.9518 40.6935C19.9518 42.2042 18.7477 43.4302 17.2589 43.4302ZM9.95714 37.1137H7.75677V34.2018C7.75677 33.5997 7.26415 33.1071 6.66206 33.1071C6.05997 33.1071 5.56735 33.5997 5.56735 34.2018V38.2085C5.56735 38.8105 6.05997 39.3032 6.66206 39.3032H9.95714C10.5592 39.3032 11.0518 38.8105 11.0518 38.2085C11.0518 37.6064 10.5592 37.1137 9.95714 37.1137ZM15.5073 31.1476C15.5073 30.5455 15.0147 30.0529 14.4126 30.0529H1.13377C0.531682 30.0529 0.0390625 30.5455 0.0390625 31.1476C0.0390625 31.7497 0.531682 32.2423 1.13377 32.2423H14.4126C15.0147 32.2423 15.5073 31.7606 15.5073 31.1476ZM3.35603 27.1957L16.6349 27.2723C17.237 27.2723 17.7296 26.7906 17.7405 26.1885C17.7515 25.5755 17.2589 25.0829 16.6568 25.0829L3.37793 25.0063C3.36698 25.0063 3.36698 25.0063 3.36698 25.0063C2.76489 25.0063 2.27227 25.4879 2.27227 26.09C2.26132 26.7031 2.75394 27.1957 3.35603 27.1957ZM5.58924 22.2257H18.8681C19.4702 22.2257 19.9628 21.7331 19.9628 21.131C19.9628 20.5289 19.4702 20.0363 18.8681 20.0363H5.58924C4.98715 20.0363 4.49453 20.5289 4.49453 21.131C4.49453 21.7331 4.98715 22.2257 5.58924 22.2257ZM53.3952 20.7478L45.5571 14.2562C45.3601 14.092 45.1192 14.0044 44.8565 14.0044H35.639V10.0635C35.639 9.46137 35.1464 8.96875 34.5443 8.96875H6.66206C6.05997 8.96875 5.56735 9.46137 5.56735 10.0635V18.0767C5.56735 18.6788 6.05997 19.1715 6.66206 19.1715C7.26415 19.1715 7.75677 18.6788 7.75677 18.0767V11.1582H33.4606V37.1137H24.4839C23.8819 37.1137 23.3892 37.6064 23.3892 38.2085C23.3892 38.8105 23.8819 39.3032 24.4839 39.3032H37.8504C38.4524 39.3032 38.9451 38.8105 38.9451 38.2085C38.9451 37.6064 38.4524 37.1137 37.8504 37.1137H35.65V16.1938H44.4733L51.6109 22.1053L51.5342 37.0919H50.3957C49.7936 37.0919 49.301 37.5845 49.301 38.1866C49.301 38.7887 49.7936 39.2813 50.3957 39.2813H52.618C53.2201 39.2813 53.7127 38.7996 53.7127 38.1975L53.8003 21.6017C53.7893 21.2733 53.647 20.9558 53.3952 20.7478Z" fill="#A4A4A4"/>
</g>
<defs>
<clipPath id="clip0_4036_15235">
<rect width="53.7612" height="53.7612" fill="white" transform="translate(0.0390625 0.413574)"/>
</clipPath>
</defs>
</svg>
