<svg width="21" height="21" viewBox="0 0 21 21" fill="none" xmlns="http://www.w3.org/2000/svg">
<g id="Instagram">
<path id="Combined-Shape" fill-rule="evenodd" clip-rule="evenodd" d="M10.8081 0.335938C5.28526 0.335938 0.808105 4.81309 0.808105 10.3359C0.808105 15.8588 5.28526 20.3359 10.8081 20.3359C16.331 20.3359 20.8081 15.8588 20.8081 10.3359C20.8081 4.81309 16.331 0.335938 10.8081 0.335938ZM8.60947 5.03483C9.17837 5.00894 9.36015 5.0026 10.8086 5.0026H10.8069C12.2558 5.0026 12.437 5.00894 13.0059 5.03483C13.5736 5.06083 13.9614 5.15072 14.3014 5.28261C14.6525 5.41872 14.9492 5.60094 15.2459 5.89761C15.5425 6.19406 15.7248 6.49162 15.8614 6.8424C15.9925 7.18152 16.0825 7.56908 16.1092 8.13686C16.1348 8.70575 16.1414 8.88753 16.1414 10.336C16.1414 11.7845 16.1348 11.9658 16.1092 12.5347C16.0825 13.1022 15.9925 13.4899 15.8614 13.8291C15.7248 14.1798 15.5425 14.4774 15.2459 14.7738C14.9495 15.0705 14.6524 15.2532 14.3018 15.3894C13.9624 15.5213 13.5744 15.6112 13.0066 15.6372C12.4377 15.663 12.2565 15.6694 10.8079 15.6694C9.35959 15.6694 9.17792 15.663 8.60903 15.6372C8.04135 15.6112 7.65368 15.5213 7.31435 15.3894C6.96379 15.2532 6.66623 15.0705 6.36989 14.7738C6.07333 14.4774 5.89111 14.1798 5.75478 13.829C5.623 13.4899 5.53311 13.1024 5.50699 12.5346C5.48122 11.9657 5.47477 11.7845 5.47477 10.336C5.47477 8.88753 5.48144 8.70564 5.50688 8.13675C5.53244 7.56919 5.62244 7.18152 5.75466 6.84229C5.89133 6.49162 6.07356 6.19406 6.37023 5.89761C6.66667 5.60105 6.96423 5.41883 7.31501 5.28261C7.65413 5.15072 8.04169 5.06083 8.60947 5.03483Z" fill="white"/>
<path id="Combined-Shape_2" fill-rule="evenodd" clip-rule="evenodd" d="M10.3303 5.96325C10.4232 5.9631 10.5232 5.96315 10.631 5.9632L10.8088 5.96325C12.2328 5.96325 12.4016 5.96836 12.9639 5.99391C13.4839 6.01769 13.7662 6.10458 13.9542 6.17758C14.203 6.27425 14.3805 6.38981 14.5671 6.57648C14.7537 6.76314 14.8693 6.94092 14.9662 7.18982C15.0392 7.3776 15.1262 7.65982 15.1498 8.17983C15.1754 8.74205 15.1809 8.91094 15.1809 10.3343C15.1809 11.7576 15.1754 11.9265 15.1498 12.4888C15.1261 13.0088 15.0392 13.291 14.9662 13.4788C14.8695 13.7277 14.7537 13.9049 14.5671 14.0914C14.3804 14.2781 14.2032 14.3937 13.9542 14.4903C13.7664 14.5637 13.4839 14.6503 12.9639 14.6741C12.4017 14.6997 12.2328 14.7052 10.8088 14.7052C9.38467 14.7052 9.21589 14.6997 8.65366 14.6741C8.13365 14.6501 7.85143 14.5632 7.66331 14.4902C7.41442 14.3936 7.23664 14.278 7.04997 14.0913C6.86331 13.9047 6.74775 13.7273 6.65086 13.4783C6.57786 13.2905 6.49086 13.0083 6.46719 12.4883C6.44163 11.9261 6.43652 11.7572 6.43652 10.333C6.43652 8.90872 6.44163 8.74072 6.46719 8.17849C6.49097 7.65849 6.57786 7.37626 6.65086 7.18826C6.74753 6.93937 6.86331 6.76159 7.04997 6.57492C7.23664 6.38825 7.41442 6.2727 7.66331 6.17581C7.85132 6.10247 8.13365 6.0158 8.65366 5.99191C9.14566 5.96969 9.33633 5.96303 10.3303 5.96191V5.96325ZM13.6557 6.84881C13.3024 6.84881 13.0157 7.13515 13.0157 7.4886C13.0157 7.84193 13.3024 8.1286 13.6557 8.1286C14.009 8.1286 14.2957 7.84193 14.2957 7.4886C14.2957 7.13526 14.009 6.84859 13.6557 6.84859V6.84881ZM8.06987 10.3355C8.06987 8.82298 9.29616 7.59666 10.8087 7.5966C12.3213 7.5966 13.5473 8.82294 13.5473 10.3355C13.5473 11.8481 12.3214 13.0739 10.8088 13.0739C9.29622 13.0739 8.06987 11.8481 8.06987 10.3355Z" fill="white"/>
<path id="Shape" d="M10.8086 8.55859C11.7903 8.55859 12.5864 9.35449 12.5864 10.3364C12.5864 11.3182 11.7903 12.1142 10.8086 12.1142C9.82666 12.1142 9.03076 11.3182 9.03076 10.3364C9.03076 9.35449 9.82666 8.55859 10.8086 8.55859Z" fill="white"/>
</g>
</svg>
