<svg xmlns="http://www.w3.org/2000/svg" width="21" height="21" viewBox="0 0 21 21" fill="none">
<path fill-rule="evenodd" clip-rule="evenodd" d="M10.8081 0.335938C5.28526 0.335938 0.808105 4.81309 0.808105 10.3359C0.808105 15.8588 5.28526 20.3359 10.8081 20.3359C16.331 20.3359 20.8081 15.8588 20.8081 10.3359C20.8081 4.81309 16.331 0.335938 10.8081 0.335938ZM5.60878 8.61837H7.875V15.4274H5.60878V8.61837ZM8.02426 6.51206C8.00955 5.84444 7.53213 5.33594 6.75687 5.33594C5.98161 5.33594 5.47477 5.84444 5.47477 6.51206C5.47477 7.16586 5.96663 7.689 6.72745 7.689H6.74193C7.53213 7.689 8.02426 7.16586 8.02426 6.51206ZM13.4386 8.45848C14.9299 8.45848 16.0479 9.43188 16.0479 11.5233L16.0478 15.4274H13.7816V11.7846C13.7816 10.8696 13.4537 10.2452 12.6333 10.2452C12.0072 10.2452 11.6343 10.6661 11.4705 11.0727C11.4106 11.2184 11.3959 11.4214 11.3959 11.6249V15.4276H9.1294C9.1294 15.4276 9.15927 9.25748 9.1294 8.61856H11.3959V9.583C11.6967 9.11937 12.2354 8.45848 13.4386 8.45848Z" fill="white"/>
</svg>