<svg width="377" height="92" viewBox="0 0 377 92" fill="none" xmlns="http://www.w3.org/2000/svg">
<path d="M357.347 13.0238H204.487C197.097 7.01804 187.678 3.41254 177.413 3.41254C167.148 3.41254 157.729 7.01804 150.34 13.0238H17.1581C9.56348 13.0238 3.40576 19.1807 3.40576 26.7762V63.366C3.40576 70.9615 9.56348 77.1192 17.1581 77.1192H147.421C155.163 84.6731 165.741 89.3345 177.413 89.3345C189.085 89.3345 199.663 84.6731 207.406 77.1192H357.347C366.088 77.1192 373.174 70.033 373.174 61.2916V28.8514C373.174 20.1101 366.088 13.0238 357.347 13.0238Z" fill="white" stroke="#231F20" stroke-width="1.69751" stroke-miterlimit="10"/>
<path d="M216.427 46.3737C216.427 67.77 199.082 85.116 177.685 85.116C156.288 85.116 138.942 67.77 138.942 46.3737C138.942 24.9775 156.288 7.63148 177.685 7.63148C199.082 7.63148 216.427 24.9775 216.427 46.3737Z" fill="#231F20"/>
<path d="M138.942 46.3737C138.942 24.977 156.288 7.63148 177.685 7.63148C199.081 7.63148 216.427 24.977 216.427 46.3737C216.427 67.7705 199.081 85.116 177.685 85.116C156.288 85.116 138.942 67.7705 138.942 46.3737Z" stroke="#231F20" stroke-width="2.54626" stroke-miterlimit="10"/>
<path d="M355.181 72.731H19.3231C13.0864 72.731 8.03125 67.6759 8.03125 61.4392V28.7027C8.03125 22.4661 13.0864 17.4109 19.3231 17.4109H355.181C362.564 17.4109 368.547 23.3955 368.547 30.7771V59.3649C368.547 66.7465 362.564 72.731 355.181 72.731Z" fill="#231F20" stroke="#231F20" stroke-width="2.54626" stroke-miterlimit="10"/>
<path d="M36.5192 61.027V34.029H47.2831V27.8331H30.499V61.027H36.5192Z" fill="white"/>
<path d="M30.4641 61.027V34.029H19.7002V27.8331H36.4843V61.027H30.4641Z" fill="white"/>
<path d="M118.093 27.8327V54.8307H134.147V61.0266H112.073V27.8327H118.093Z" fill="white"/>
<path d="M53.9069 41.9134C54.2956 40.0156 55.1359 38.3529 56.448 36.9346C58.3127 34.9214 60.7292 33.9147 63.6972 33.9147C66.695 33.9147 69.1259 34.9214 70.9906 36.9346C72.3036 38.3529 73.1439 40.0156 73.5318 41.9134H80.7547C81.1434 40.0156 81.9837 38.3529 83.2967 36.9346C85.1605 34.9214 87.577 33.9147 90.545 33.9147C93.5428 33.9147 95.9745 34.9214 97.8392 36.9346C99.1514 38.3529 99.9917 40.0156 100.38 41.9134H107.17C106.693 38.2417 105.161 35.0843 102.537 32.46C99.3305 29.2542 95.3405 27.6501 90.5671 27.6501C85.7946 27.6501 81.8046 29.2542 78.598 32.46C78.0633 32.9955 77.5897 33.56 77.1432 34.1388C76.6976 33.56 76.224 32.9955 75.6893 32.46C72.4819 29.2542 68.4927 27.6501 63.7193 27.6501C58.9459 27.6501 54.9568 29.2542 51.7502 32.46C49.1258 35.0843 47.5947 38.2417 47.1177 41.9134H53.9069Z" fill="white"/>
<path d="M53.9069 46.9463C54.2956 48.8441 55.1359 50.5068 56.448 51.9251C58.3127 53.9383 60.7292 54.945 63.6972 54.945C66.695 54.945 69.1259 53.9383 70.9906 51.9251C72.3036 50.5068 73.1439 48.8441 73.5318 46.9463H80.7547C81.1434 48.8441 81.9837 50.5068 83.2967 51.9251C85.1605 53.9383 87.577 54.945 90.545 54.945C93.5428 54.945 95.9745 53.9383 97.8392 51.9251C99.1514 50.5068 99.9917 48.8441 100.38 46.9463H107.17C106.693 50.618 105.161 53.7754 102.537 56.3997C99.3305 59.6055 95.3405 61.2096 90.5671 61.2096C85.7946 61.2096 81.8046 59.6055 78.598 56.3997C78.0633 55.8642 77.5897 55.2997 77.1432 54.7209C76.6976 55.2997 76.224 55.8642 75.6893 56.3997C72.4819 59.6055 68.4927 61.2096 63.7193 61.2096C58.9459 61.2096 54.9568 59.6055 51.7502 56.3997C49.1258 53.7754 47.5947 50.618 47.1177 46.9463H53.9069Z" fill="white"/>
<path d="M295.607 27.8421V48.3225L276.976 27.8421H274.972V60.9656H280.987V40.4232L299.618 60.9036H301.623V27.8421H295.607Z" fill="#FBB039"/>
<path d="M243.695 55.4209L239.066 46.5234C242.763 45.2137 244.61 42.1667 244.61 37.3814C244.61 31.0217 241.095 27.8423 234.065 27.8423H220.927V60.9658H226.953V34.0475H235.451C237.834 34.1358 239.06 35.2697 239.127 37.4476C239.06 39.8326 237.814 41.0472 235.39 41.0913H232.43V47.2745H232.457L239.669 60.9658H246.579L250.59 56.5871L264.901 40.8562V60.9658L267.545 61.0269H270.931L274.971 60.9658V55.1H270.927V27.8423H269.307L243.695 55.4209Z" fill="#FBB039"/>
<path d="M308.612 56.0768C305.739 52.9339 304.303 48.9956 304.303 44.2621C304.316 39.6313 305.756 35.7372 308.622 32.579C311.487 29.4208 315.04 27.8421 319.28 27.8421C323.558 27.8421 327.231 29.3079 330.297 32.2387L326.298 37.052C324.259 35.2933 321.919 34.4149 319.28 34.4149C316.587 34.4293 314.417 35.3528 312.771 37.1844C311.124 39.016 310.301 41.3602 310.301 44.218C310.315 47.2812 311.148 49.7128 312.801 51.5156C314.454 53.3183 316.627 54.2189 319.32 54.2189C321.479 54.2189 323.139 53.7504 324.299 52.8125V47.1632L320.299 47.1852V41.0309H330.297V56.4171C327.244 59.3487 323.572 60.8137 319.28 60.8137C315.04 60.7993 311.484 59.2197 308.612 56.0768Z" fill="#FBB039"/>
<path d="M357.325 27.7862H333.035V33.9999H357.325V27.7862Z" fill="#FBB039"/>
<path d="M357.325 41.2406H333.035V47.4544H357.325V41.2406Z" fill="#FBB039"/>
<path d="M357.325 54.6561H333.035V60.8698H357.325V54.6561Z" fill="#FBB039"/>
<path d="M170.68 34.8135C170.909 35.0664 199.104 63.3605 199.617 63.8834C201.794 66.1003 202.933 68.2409 200.72 70.4536C198.097 73.0771 195.969 72.0484 193.677 69.7958C193.421 69.5598 164.932 41.0722 164.654 40.8151C164.351 41.1045 163.011 42.4226 162.767 42.6662C161.557 43.8731 160.351 45.0851 159.139 46.2887C158.892 46.534 158.626 46.7597 158.359 46.983C157.705 47.5304 156.499 47.6798 155.546 46.9244C155.356 46.7733 155.186 46.5951 155.014 46.4228C153.606 45.0181 153.225 44.564 151.774 43.206C150.45 41.9668 150.561 40.6988 151.325 39.4698C152.668 37.308 153.954 35.1106 155.233 32.9098C155.82 31.9014 156.586 31.051 157.398 30.2353C160.226 27.392 163.066 24.5597 165.903 21.7257C166.075 21.5534 166.252 21.3811 166.446 21.236C167.3 20.5994 168.296 20.5731 169.17 21.1749C169.427 21.3514 169.66 21.5678 169.881 21.7885C171.832 23.7339 172.792 24.693 174.737 26.6451C174.957 26.8666 175.173 27.1 175.348 27.3572C175.915 28.1915 175.929 29.0547 175.385 29.9035C175.198 30.1937 174.962 30.4577 174.72 30.7055C173.988 31.4533 173.241 32.1858 172.505 32.9293C172.311 33.1245 170.935 34.5334 170.68 34.8135Z" fill="white"/>
<path d="M201.876 29.339C202.804 28.172 201.993 26.9761 201.993 26.9761L199.01 23.9469L196.027 20.9169C196.027 20.9169 194.85 20.0936 193.701 21.0365C192.551 21.9786 176.227 38.7831 176.227 38.7831C176.227 38.7831 175.166 40.3898 176.264 41.5509L172.292 45.5842L174.999 48.3333L177.706 51.0816L181.677 47.0483C182.82 48.1644 184.402 47.0856 184.402 47.0856C184.402 47.0856 200.947 30.5061 201.876 29.339Z" fill="#FBB040"/>
<path d="M151.199 65.1388L158.452 72.5043L174.194 56.5163L174.199 52.4797L175.741 50.9137L174.099 49.2468L172.457 47.5789L170.915 49.1449L166.941 49.15L151.199 65.1388Z" stroke="#FBB040" stroke-width="1.27313" stroke-miterlimit="10"/>
<path d="M158.535 67.9668L155.612 64.9978L172.326 48.024L175.248 50.9924L158.535 67.9668Z" fill="#FBB040"/>
<path d="M157.286 65.1382L151.861 65.1654" stroke="#FBB040" stroke-width="1.27313" stroke-miterlimit="10"/>
<path d="M158.37 66.2406L158.503 71.9104" stroke="#FBB040" stroke-width="1.27313" stroke-miterlimit="10"/>
</svg>
