<svg width="17" height="17" viewBox="0 0 17 17" fill="none" xmlns="http://www.w3.org/2000/svg">
<path d="M2.53906 4.06978C1.71484 4.06978 1.03906 4.74556 1.03906 5.56978V13.5698C1.03906 14.394 1.71484 15.0698 2.53906 15.0698H13.5391C14.3633 15.0698 15.0391 14.394 15.0391 13.5698V5.56978C15.0391 4.74556 14.3633 4.06978 13.5391 4.06978H2.53906ZM2.53906 5.06978H13.5391C13.5742 5.06978 13.6016 5.0815 13.6328 5.08931L8.03906 8.9604L2.44531 5.08931C2.47656 5.0815 2.50391 5.06978 2.53906 5.06978ZM2.03906 6.0229L8.03906 10.1792L14.0391 6.0229V13.5698C14.0391 13.851 13.8203 14.0698 13.5391 14.0698H2.53906C2.25781 14.0698 2.03906 13.851 2.03906 13.5698V6.0229Z" fill="white"/>
</svg>
