<svg width="17" height="17" viewBox="0 0 17 17" fill="none" xmlns="http://www.w3.org/2000/svg">
<path d="M3.41051 2.71094L1.83629 4.28516C0.973012 5.14844 0.785512 6.49219 1.4027 7.54687C2.0902 8.72656 2.6527 9.59766 5.00817 11.9492C7.35973 14.3047 8.00036 14.625 9.16051 15.3047C10.2191 15.9219 11.5589 15.7344 12.4183 14.8711L13.9964 13.2969L10.9496 10.2539L9.71129 11.4922C9.56286 11.4258 9.3402 11.3086 9.08239 11.1445C8.55114 10.8047 7.87145 10.2852 7.27379 9.68359C6.67223 9.08594 6.08629 8.33984 5.68004 7.73828C5.48082 7.44141 5.32067 7.17187 5.23473 6.99609C5.23082 6.98828 5.23082 6.98828 5.22692 6.98047L6.45348 5.75391L3.41051 2.71094ZM3.41051 4.125L5.03942 5.75391L4.32457 6.47266C4.17614 6.62109 4.16051 6.78516 4.16442 6.87891C4.16442 6.96875 4.18004 7.03125 4.19567 7.08984C4.23082 7.21094 4.2777 7.31641 4.33629 7.44141C4.45739 7.68359 4.63317 7.97266 4.85192 8.30078C5.28942 8.94922 5.90661 9.73438 6.56286 10.3945C7.22301 11.0508 7.94957 11.6055 8.54723 11.9844C8.84411 12.1758 9.10582 12.3203 9.32848 12.418C9.44176 12.4688 9.54332 12.5078 9.66442 12.5312C9.72301 12.543 9.78942 12.5508 9.87926 12.543C9.96911 12.5391 10.1097 12.5078 10.2347 12.3828L10.9496 11.668L12.5824 13.2969L11.7113 14.168C11.1683 14.7109 10.3285 14.8281 9.66442 14.4414C8.48473 13.75 8.03551 13.5664 5.71129 11.2461C3.39098 8.92188 2.94567 8.20703 2.26598 7.04297C1.87926 6.37891 1.99645 5.53906 2.53942 4.99609L3.41051 4.125Z" fill="white"/>
</svg>
