<svg width="22" height="21" viewBox="0 0 22 21" fill="none" xmlns="http://www.w3.org/2000/svg">
<path d="M13.8203 1.31262C10.5749 1.31262 7.91406 3.97342 7.91406 7.21887C7.91406 8.60244 8.46898 9.82574 9.27527 10.8359L2.72559 17.3856L3.65356 18.3136L10.2032 11.7639C11.2134 12.5702 12.4367 13.1251 13.8203 13.1251C17.0658 13.1251 19.7266 10.4643 19.7266 7.21887C19.7266 3.97342 17.0658 1.31262 13.8203 1.31262ZM13.8203 2.62512C16.3499 2.62512 18.4141 4.68933 18.4141 7.21887C18.4141 9.74842 16.3499 11.8126 13.8203 11.8126C11.2908 11.8126 9.22656 9.74842 9.22656 7.21887C9.22656 4.68933 11.2908 2.62512 13.8203 2.62512Z" fill="#686868"/>
</svg>
