<svg xmlns="http://www.w3.org/2000/svg" width="40" height="41" viewBox="0 0 40 41" fill="none">
<path d="M18.1682 7.41797C24.35 7.41797 29.4182 12.4862 29.4182 18.668C29.4182 21.3033 28.3612 23.6334 26.8254 25.5576L33.082 31.8145L31.3145 33.5821L25.0579 27.3252C23.1337 28.861 20.8036 29.918 18.1682 29.918C11.9864 29.918 6.91821 24.8498 6.91821 18.668C6.91821 12.4862 11.9864 7.41797 18.1682 7.41797ZM18.1682 9.91797C13.35 9.91797 9.41821 13.8498 9.41821 18.668C9.41821 23.4861 13.35 27.418 18.1682 27.418C22.9864 27.418 26.9182 23.4861 26.9182 18.668C26.9182 13.8498 22.9864 9.91797 18.1682 9.91797Z" fill="#686868"/>
</svg>
