<svg width="54" height="55" viewBox="0 0 54 55" fill="none" xmlns="http://www.w3.org/2000/svg">
<path d="M47.0803 3.77344H6.75935C3.97889 3.77344 1.71924 6.03309 1.71924 8.81355V34.0141C1.71924 36.7946 3.97889 39.0542 6.75935 39.0542H12.6395C13.1015 39.0542 13.4795 38.6762 13.4795 38.2142C13.4795 37.7522 13.1015 37.3742 12.6395 37.3742H6.75935C4.90291 37.3742 3.39928 35.8706 3.39928 34.0141V20.5738H50.4403V34.0141C50.4403 35.8706 48.9367 37.3742 47.0803 37.3742H41.2001C40.7381 37.3742 40.3601 37.7522 40.3601 38.2142C40.3601 38.6762 40.7381 39.0542 41.2001 39.0542H47.0803C49.8607 39.0542 52.1204 36.7946 52.1204 34.0141V8.81355C52.1204 6.03309 49.8607 3.77344 47.0803 3.77344ZM3.39928 10.4936V8.81355C3.39928 6.95711 4.90291 5.45348 6.75935 5.45348H47.0803C48.9367 5.45348 50.4403 6.95711 50.4403 8.81355V10.4936H3.39928Z" fill="#A4A4A4"/>
<path d="M12.6394 32.3343H7.5993C7.13729 32.3343 6.75928 31.9563 6.75928 31.4943C6.75928 31.0323 7.13729 30.6543 7.5993 30.6543H12.6394C13.1014 30.6543 13.4794 31.0323 13.4794 31.4943C13.4794 31.9563 13.1014 32.3343 12.6394 32.3343Z" fill="#A4A4A4"/>
<path d="M15.9995 28.1341H7.5993C7.13729 28.1341 6.75928 27.7561 6.75928 27.2941C6.75928 26.8321 7.13729 26.4541 7.5993 26.4541H15.9995C16.4615 26.4541 16.8395 26.8321 16.8395 27.2941C16.8395 27.7561 16.4615 28.1341 15.9995 28.1341Z" fill="#A4A4A4"/>
<path d="M43.7199 33.1743C45.5757 33.1743 47.08 31.6699 47.08 29.8142C47.08 27.9585 45.5757 26.4541 43.7199 26.4541C41.8642 26.4541 40.3599 27.9585 40.3599 29.8142C40.3599 31.6699 41.8642 33.1743 43.7199 33.1743Z" fill="#A4A4A4"/>
<path d="M34.4796 34.0143H33.6396V30.6542C33.6396 26.9498 30.6239 23.9341 26.9194 23.9341C23.215 23.9341 20.1993 26.9498 20.1993 30.6542V34.0143H19.3593C17.0408 34.0143 15.1592 35.896 15.1592 38.2144V46.6146C15.1592 48.933 17.0408 50.8147 19.3593 50.8147H34.4796C36.7981 50.8147 38.6797 48.933 38.6797 46.6146V38.2144C38.6797 35.896 36.7981 34.0143 34.4796 34.0143ZM27.7595 43.1033V45.7746C27.7595 46.2366 27.3815 46.6146 26.9194 46.6146C26.4574 46.6146 26.0794 46.2366 26.0794 45.7746V43.1033C25.105 42.7589 24.3994 41.8349 24.3994 40.7345C24.3994 39.3484 25.5334 38.2144 26.9194 38.2144C28.3055 38.2144 29.4395 39.3484 29.4395 40.7345C29.4395 41.8265 28.7339 42.7505 27.7595 43.1033ZM31.9596 34.0143H21.8793V30.6542C21.8793 27.8738 24.139 25.6141 26.9194 25.6141C29.6999 25.6141 31.9596 27.8738 31.9596 30.6542V34.0143Z" fill="#A4A4A4"/>
</svg>
