<svg xmlns="http://www.w3.org/2000/svg" width="28" height="29" viewBox="0 0 28 29" fill="none">
<path d="M14 8.45862L15.6917 11.9003L16.2167 13.0086L17.4417 13.1836L21.2333 13.7086L18.4917 16.392L17.6167 17.267L17.85 18.492L18.4917 22.2836L15.1083 20.4753L14 19.892L12.8917 20.4753L9.50833 22.2836L10.15 18.492L10.3833 17.267L9.50833 16.392L6.76667 13.7086L10.5583 13.1836L11.7833 13.0086L12.3083 11.9003L14 8.45862ZM14 3.20862L10.2083 10.9086L1.75 12.1336L7.875 18.0836L6.41667 26.542L14 22.5753L21.5833 26.542L20.125 18.0836L26.25 12.1336L17.7917 10.9086L14 3.20862Z" fill="#FFCA28"/>
</svg>