<svg width="54" height="55" viewBox="0 0 54 55" fill="none" xmlns="http://www.w3.org/2000/svg">
<g clip-path="url(#clip0_4036_12049)">
<path d="M14.3193 22.4639C11.7138 22.4639 9.59424 24.5834 9.59424 27.189V39.9993C9.59424 42.6048 11.7138 44.7244 14.3193 44.7244C16.9249 44.7244 19.0445 42.6048 19.0445 39.9993V27.189C19.0445 24.5834 16.9249 22.4639 14.3193 22.4639Z" fill="#A4A4A4"/>
<path d="M6.44402 27.1894C6.44402 26.735 6.50397 26.2961 6.57821 25.8628C4.67998 26.4763 3.29395 28.2395 3.29395 30.3395V36.8496C3.29395 38.9496 4.67998 40.7128 6.57821 41.3263C6.50397 40.8929 6.44402 40.454 6.44402 39.9997V27.1894Z" fill="#A4A4A4"/>
<path d="M39.5197 22.4639C36.9142 22.4639 34.7946 24.5834 34.7946 27.189V39.9993C34.7946 42.6048 36.9142 44.7244 39.5197 44.7244C39.9933 44.7244 40.4419 44.6332 40.8734 44.503C40.2871 46.4465 38.5017 47.8744 36.3697 47.8744H31.3544C30.702 46.0451 28.9701 44.7244 26.9194 44.7244C24.3139 44.7244 22.1943 46.8439 22.1943 49.4495C22.1943 52.055 24.3139 54.1746 26.9194 54.1746C28.9701 54.1746 30.702 52.8539 31.3544 51.0245H36.3697C40.7118 51.0245 44.2448 47.4915 44.2448 43.1493V39.9993V27.189C44.2448 24.5834 42.1253 22.4639 39.5197 22.4639Z" fill="#A4A4A4"/>
<path d="M47.2607 25.8628C47.335 26.2961 47.3949 26.735 47.3949 27.1894V39.9997C47.3949 40.454 47.335 40.8929 47.2607 41.3263C49.159 40.7128 50.545 38.9496 50.545 36.8496V30.3395C50.545 28.2395 49.159 26.4763 47.2607 25.8628Z" fill="#A4A4A4"/>
<path d="M26.9195 0.413574C13.8916 0.413574 3.29395 11.0113 3.29395 24.0391V24.0793C4.23235 23.3689 5.31808 22.849 6.51615 22.6162C7.25232 11.9902 16.1099 3.56365 26.9195 3.56365C37.7291 3.56365 46.5866 11.9902 47.3228 22.6161C48.5208 22.8489 49.6065 23.3689 50.545 24.0792V24.0391C50.545 11.0113 39.9473 0.413574 26.9195 0.413574Z" fill="#A4A4A4"/>
</g>
<defs>
<clipPath id="clip0_4036_12049">
<rect width="53.7612" height="53.7612" fill="white" transform="translate(0.0390625 0.413574)"/>
</clipPath>
</defs>
</svg>
