<svg width="21" height="21" viewBox="0 0 21 21" fill="none" xmlns="http://www.w3.org/2000/svg">
<g id="icons8_Rotary_Dial_Telephone 1">
<path id="Vector" d="M10.3808 3.76465C4.02475 3.76465 3.04612 5.63909 3.04612 7.32975C3.04612 7.87109 3.18648 8.24585 3.33648 8.49251C3.49115 8.74585 3.7894 8.86863 4.07606 8.79329C4.7914 8.60663 6.33469 8.20262 7.05002 8.01595C7.28536 7.95462 7.46528 7.76951 7.52528 7.53418L7.82737 6.34147C7.8947 6.0748 8.11523 5.87808 8.38856 5.84408C8.86056 5.78608 9.63612 5.70736 10.3794 5.70736C11.1221 5.70736 11.8977 5.78608 12.3703 5.84408C12.6437 5.87741 12.8642 6.07414 12.9315 6.34147L13.2336 7.53418C13.2929 7.76951 13.4761 7.95462 13.7115 8.01595L16.6815 8.79329C16.9689 8.86796 17.2691 8.74521 17.4237 8.49121C17.5731 8.24388 17.7128 7.86975 17.7128 7.32975C17.7128 5.63909 16.7368 3.76465 10.3808 3.76465ZM9.0357 8.4222C8.85912 8.42496 8.69084 8.49767 8.56781 8.62436C8.44477 8.75106 8.37703 8.92139 8.37945 9.09798V9.10059C7.93799 9.10841 7.51134 9.25953 7.16591 9.53548L5.20367 11.1045C4.67367 11.5285 4.32571 12.1382 4.22971 12.8102L3.80783 15.7646H3.71278C3.62444 15.7634 3.53673 15.7797 3.45475 15.8127C3.37278 15.8456 3.29816 15.8945 3.23525 15.9565C3.17233 16.0186 3.12238 16.0925 3.08828 16.174C3.05418 16.2555 3.03662 16.343 3.03662 16.4313C3.03662 16.5197 3.05418 16.6071 3.08828 16.6886C3.12238 16.7701 3.17233 16.8441 3.23525 16.9061C3.29816 16.9681 3.37278 17.017 3.45475 17.05C3.53673 17.0829 3.62444 17.0992 3.71278 17.098H17.0461C17.1345 17.0992 17.2222 17.0829 17.3041 17.05C17.3861 17.017 17.4607 16.9681 17.5237 16.9061C17.5866 16.8441 17.6365 16.7701 17.6706 16.6886C17.7047 16.6071 17.7223 16.5197 17.7223 16.4313C17.7223 16.343 17.7047 16.2555 17.6706 16.174C17.6365 16.0925 17.5866 16.0186 17.5237 15.9565C17.4607 15.8945 17.3861 15.8456 17.3041 15.8127C17.2222 15.7797 17.1345 15.7634 17.0461 15.7646H16.9511L16.5292 12.8102C16.4332 12.1389 16.0852 11.5285 15.5552 11.1045L13.5943 9.53548C13.2489 9.25953 12.8209 9.10841 12.3794 9.10059V9.09798C12.3807 9.00879 12.364 8.92026 12.3304 8.83763C12.2968 8.755 12.2469 8.67996 12.1838 8.61695C12.1206 8.55393 12.0455 8.50423 11.9628 8.47078C11.8801 8.43733 11.7916 8.42081 11.7024 8.4222C11.5258 8.42496 11.3575 8.49767 11.2345 8.62436C11.1114 8.75106 11.0437 8.92139 11.0461 9.09798H9.71278C9.714 9.00879 9.69732 8.92026 9.6637 8.83763C9.63009 8.755 9.58025 8.67996 9.51711 8.61695C9.45397 8.55393 9.37884 8.50423 9.29614 8.47078C9.21345 8.43733 9.12489 8.42081 9.0357 8.4222ZM9.04612 11.098C9.41412 11.098 9.71278 11.3966 9.71278 11.7646C9.71278 12.1326 9.41412 12.4313 9.04612 12.4313C8.67812 12.4313 8.37945 12.1326 8.37945 11.7646C8.37945 11.3966 8.67812 11.098 9.04612 11.098ZM11.7128 11.098C12.0808 11.098 12.3794 11.3966 12.3794 11.7646C12.3794 12.1326 12.0808 12.4313 11.7128 12.4313C11.3448 12.4313 11.0461 12.1326 11.0461 11.7646C11.0461 11.3966 11.3448 11.098 11.7128 11.098ZM9.04612 13.7646C9.41412 13.7646 9.71278 14.0633 9.71278 14.4313C9.71278 14.7993 9.41412 15.098 9.04612 15.098C8.67812 15.098 8.37945 14.7993 8.37945 14.4313C8.37945 14.0633 8.67812 13.7646 9.04612 13.7646ZM11.7128 13.7646C12.0808 13.7646 12.3794 14.0633 12.3794 14.4313C12.3794 14.7993 12.0808 15.098 11.7128 15.098C11.3448 15.098 11.0461 14.7993 11.0461 14.4313C11.0461 14.0633 11.3448 13.7646 11.7128 13.7646Z" fill="#FBB039"/>
</g>
</svg>
