<svg width="54" height="55" viewBox="0 0 54 55" fill="none" xmlns="http://www.w3.org/2000/svg">
<g clip-path="url(#clip0_4036_15220)">
<path d="M28.4947 3.64345V1.98861C28.4947 1.11804 27.7902 0.413574 26.9197 0.413574C26.0491 0.413574 25.3446 1.11804 25.3446 1.98861V3.64345C11.3146 4.46572 0.0390625 16.2115 0.0390625 30.4443C0.0390625 31.1379 0.492778 31.7502 1.15723 31.9516C1.81864 32.1515 2.54001 31.8947 2.92453 31.3179C4.05656 29.6214 5.97968 28.6477 8.01924 28.6477C10.0588 28.6477 11.8768 29.6212 13.009 31.3179C13.5934 32.1946 15.0455 32.1946 15.6299 31.3179C16.762 29.6214 18.5801 28.6477 20.6196 28.6477C22.5202 28.6477 24.2046 29.5208 25.3447 31.0089V47.8746C25.3447 49.6112 23.9312 51.0247 22.1947 51.0247C20.4581 51.0247 19.0446 49.6112 19.0446 47.8746V46.2996C19.0446 45.429 18.3401 44.7246 17.4696 44.7246C16.599 44.7246 15.8945 45.429 15.8945 46.2996V47.8746C15.8945 51.3493 18.72 54.1748 22.1947 54.1748C25.6693 54.1748 28.4948 51.3493 28.4948 47.8746V31.009C29.6349 29.5209 31.3194 28.6478 33.2199 28.6478C35.2595 28.6478 37.0775 29.6214 38.2096 31.318C38.7941 32.1947 40.2462 32.1947 40.8306 31.318C41.9626 29.6215 43.8857 28.6478 45.9253 28.6478C47.9649 28.6478 49.7829 29.6214 50.915 31.318C51.3093 31.9075 52.0352 32.1497 52.6823 31.9517C53.3466 31.7502 53.8003 31.1379 53.8003 30.4443C53.8003 16.2115 42.5247 4.46572 28.4947 3.64345Z" fill="#A4A4A4"/>
</g>
<defs>
<clipPath id="clip0_4036_15220">
<rect width="53.7612" height="53.7612" fill="white" transform="translate(0.0390625 0.413574)"/>
</clipPath>
</defs>
</svg>
