<svg width="33" height="33" viewBox="0 0 33 33" fill="none" xmlns="http://www.w3.org/2000/svg">
<path d="M16.0391 4.97607C12.7344 4.97607 10.0391 7.67139 10.0391 10.9761C10.0391 14.2808 12.7344 16.9761 16.0391 16.9761C19.3438 16.9761 22.0391 14.2808 22.0391 10.9761C22.0391 7.67139 19.3438 4.97607 16.0391 4.97607ZM16.0391 16.9761C10.5313 16.9761 6.03906 21.4683 6.03906 26.9761H8.03906C8.03906 22.5464 11.6094 18.9761 16.0391 18.9761C20.4688 18.9761 24.0391 22.5464 24.0391 26.9761H26.0391C26.0391 21.4683 21.5469 16.9761 16.0391 16.9761ZM16.0391 6.97607C18.2578 6.97607 20.0391 8.75732 20.0391 10.9761C20.0391 13.1948 18.2578 14.9761 16.0391 14.9761C13.8203 14.9761 12.0391 13.1948 12.0391 10.9761C12.0391 8.75732 13.8203 6.97607 16.0391 6.97607Z" fill="#010101"/>
</svg>
