<svg xmlns="http://www.w3.org/2000/svg" width="21" height="21" viewBox="0 0 21 21" fill="none">
<path fill-rule="evenodd" clip-rule="evenodd" d="M10.8081 0.335938C5.28526 0.335938 0.808105 4.81309 0.808105 10.3359C0.808105 15.8588 5.28526 20.3359 10.8081 20.3359C16.331 20.3359 20.8081 15.8588 20.8081 10.3359C20.8081 4.81309 16.331 0.335938 10.8081 0.335938ZM14.9754 6.89816C15.4344 7.0241 15.7959 7.39519 15.9185 7.86645C16.1414 8.72054 16.1414 10.5026 16.1414 10.5026C16.1414 10.5026 16.1414 12.2846 15.9185 13.1388C15.7959 13.61 15.4344 13.9811 14.9754 14.1071C14.1437 14.3359 10.8081 14.3359 10.8081 14.3359C10.8081 14.3359 7.47253 14.3359 6.64071 14.1071C6.18174 13.9811 5.82029 13.61 5.69762 13.1388C5.47477 12.2846 5.47477 10.5026 5.47477 10.5026C5.47477 10.5026 5.47477 8.72054 5.69762 7.86645C5.82029 7.39519 6.18174 7.0241 6.64071 6.89816C7.47253 6.66927 10.8081 6.66927 10.8081 6.66927C10.8081 6.66927 14.1437 6.66927 14.9754 6.89816Z" fill="white"/>
<path d="M9.80811 12.3363V9.00293L12.4748 10.6697L9.80811 12.3363Z" fill="white"/>
</svg>