<svg width="220" height="54" viewBox="0 0 220 54" fill="none" xmlns="http://www.w3.org/2000/svg">
<path d="M207.622 7.60608H118.816C114.523 4.11692 109.051 2.02225 103.087 2.02225C97.1239 2.02225 91.6515 4.11692 87.3586 7.60608H9.98477C5.57254 7.60608 1.99512 11.183 1.99512 15.5957V36.8531C1.99512 41.2659 5.57254 44.8433 9.98477 44.8433H85.6628C90.1609 49.2318 96.3063 51.9399 103.087 51.9399C109.868 51.9399 116.014 49.2318 120.512 44.8433H207.622C212.701 44.8433 216.818 40.7264 216.818 35.648V16.8013C216.818 11.7229 212.701 7.60608 207.622 7.60608Z" fill="white" stroke="#231F20" stroke-width="0.986194" stroke-miterlimit="10"/>
<path d="M125.753 26.9812C125.753 39.4117 115.676 49.4891 103.245 49.4891C90.8145 49.4891 80.7371 39.4117 80.7371 26.9812C80.7371 14.5507 90.8145 4.47328 103.245 4.47328C115.676 4.47328 125.753 14.5507 125.753 26.9812Z" fill="#231F20"/>
<path d="M80.7371 26.9812C80.7371 14.5504 90.8143 4.47328 103.245 4.47328C115.676 4.47328 125.753 14.5504 125.753 26.9812C125.753 39.412 115.676 49.4891 103.245 49.4891C90.8143 49.4891 80.7371 39.412 80.7371 26.9812Z" stroke="#231F20" stroke-width="1.47929" stroke-miterlimit="10"/>
<path d="M206.364 42.2939H11.2423C7.61901 42.2939 4.68213 39.357 4.68213 35.7337V16.715C4.68213 13.0917 7.61901 10.1548 11.2423 10.1548H206.364C210.653 10.1548 214.13 13.6317 214.13 17.9201V34.5286C214.13 38.8171 210.653 42.2939 206.364 42.2939Z" fill="#231F20" stroke="#231F20" stroke-width="1.47929" stroke-miterlimit="10"/>
<path d="M21.2329 35.4943V19.8093H27.4863V16.2097H17.7354V35.4943H21.2329Z" fill="white"/>
<path d="M17.7149 35.4943V19.8093H11.4614V16.2097H21.2124V35.4943H17.7149Z" fill="white"/>
<path d="M68.6245 16.2095V31.8944H77.9509V35.4941H65.127V16.2095H68.6245Z" fill="white"/>
<path d="M31.3344 24.3899C31.5603 23.2874 32.0484 22.3214 32.8108 21.4974C33.8941 20.3278 35.2979 19.743 37.0223 19.743C38.7639 19.743 40.1761 20.3278 41.2595 21.4974C42.0223 22.3214 42.5105 23.2874 42.7358 24.3899H46.9321C47.1579 23.2874 47.6461 22.3214 48.4089 21.4974C49.4917 20.3278 50.8956 19.743 52.6199 19.743C54.3616 19.743 55.7743 20.3278 56.8576 21.4974C57.6199 22.3214 58.1081 23.2874 58.3339 24.3899H62.2782C62.0011 22.2568 61.1111 20.4225 59.5869 18.8978C57.724 17.0354 55.4059 16.1034 52.6328 16.1034C49.8601 16.1034 47.542 17.0354 45.6791 18.8978C45.3685 19.2089 45.0933 19.5369 44.8339 19.8732C44.5751 19.5369 44.2999 19.2089 43.9893 18.8978C42.1258 17.0354 39.8083 16.1034 37.0351 16.1034C34.2619 16.1034 31.9444 17.0354 30.0815 18.8978C28.5568 20.4225 27.6673 22.2568 27.3901 24.3899H31.3344Z" fill="white"/>
<path d="M31.3344 27.3139C31.5603 28.4164 32.0484 29.3824 32.8108 30.2064C33.8941 31.376 35.2979 31.9608 37.0223 31.9608C38.7639 31.9608 40.1761 31.376 41.2595 30.2064C42.0223 29.3824 42.5105 28.4164 42.7358 27.3139H46.9321C47.1579 28.4164 47.6461 29.3824 48.4089 30.2064C49.4917 31.376 50.8956 31.9608 52.6199 31.9608C54.3616 31.9608 55.7743 31.376 56.8576 30.2064C57.6199 29.3824 58.1081 28.4164 58.3339 27.3139H62.2782C62.0011 29.447 61.1111 31.2813 59.5869 32.806C57.724 34.6684 55.4059 35.6004 52.6328 35.6004C49.8601 35.6004 47.542 34.6684 45.6791 32.806C45.3685 32.4948 45.0933 32.1669 44.8339 31.8306C44.5751 32.1669 44.2999 32.4948 43.9893 32.806C42.1258 34.6684 39.8083 35.6004 37.0351 35.6004C34.2619 35.6004 31.9444 34.6684 30.0815 32.806C28.5568 31.2813 27.6673 29.447 27.3901 27.3139H31.3344Z" fill="white"/>
<path d="M171.754 16.215V28.1134L160.93 16.215H159.766V35.4586H163.26V23.5241L174.084 35.4226H175.249V16.215H171.754Z" fill="#FBB039"/>
<path d="M141.595 32.2373L138.906 27.0682C141.053 26.3073 142.127 24.5371 142.127 21.757C142.127 18.0622 140.084 16.2151 136 16.2151H128.367V35.4587H131.868V19.8201H136.805C138.19 19.8714 138.902 20.5302 138.941 21.7955C138.902 23.1811 138.178 23.8867 136.77 23.9123H135.05V27.5045H135.066L139.256 35.4587H143.27L145.6 32.9148L153.915 23.7757V35.4587L155.451 35.4942H157.418L159.765 35.4587V32.0509H157.416V16.2151H156.474L141.595 32.2373Z" fill="#FBB039"/>
<path d="M179.309 32.6184C177.64 30.7924 176.806 28.5045 176.806 25.7545C176.814 23.0641 177.65 20.8018 179.315 18.967C180.98 17.1322 183.044 16.215 185.507 16.215C187.993 16.215 190.126 17.0666 191.907 18.7693L189.584 21.5656C188.399 20.5439 187.04 20.0336 185.507 20.0336C183.942 20.0419 182.682 20.5784 181.725 21.6425C180.769 22.7066 180.29 24.0686 180.29 25.7288C180.299 27.5084 180.782 28.9211 181.743 29.9685C182.703 31.0158 183.965 31.539 185.53 31.539C186.784 31.539 187.749 31.2668 188.423 30.7219V27.4399L186.099 27.4527V23.8772H191.907V32.8161C190.134 34.5193 188 35.3704 185.507 35.3704C183.044 35.362 180.978 34.4443 179.309 32.6184Z" fill="#FBB039"/>
<path d="M207.61 16.1825H193.498V19.7925H207.61V16.1825Z" fill="#FBB039"/>
<path d="M207.61 23.9991H193.498V27.609H207.61V23.9991Z" fill="#FBB039"/>
<path d="M207.61 31.793H193.498V35.4029H207.61V31.793Z" fill="#FBB039"/>
<path d="M99.1756 20.2651C99.3087 20.4121 115.689 36.8499 115.987 37.1537C117.252 38.4417 117.913 39.6853 116.628 40.9708C115.104 42.4949 113.868 41.8973 112.536 40.5886C112.387 40.4515 95.8363 23.9012 95.6746 23.7518C95.4985 23.92 94.7204 24.6857 94.5784 24.8273C93.8753 25.5284 93.1751 26.2326 92.4704 26.9318C92.3269 27.0743 92.1726 27.2055 92.0173 27.3351C91.6376 27.6532 90.9369 27.74 90.3832 27.3011C90.2727 27.2133 90.1741 27.1098 90.074 27.0097C89.2564 26.1936 89.035 25.9298 88.1918 25.1409C87.4226 24.4209 87.4872 23.6843 87.931 22.9702C88.7111 21.7143 89.4586 20.4377 90.2017 19.1591C90.5424 18.5733 90.9877 18.0792 91.4591 17.6054C93.1021 15.9535 94.752 14.308 96.4004 12.6616C96.5005 12.5615 96.6031 12.4614 96.716 12.377C97.2121 12.0072 97.7905 11.9919 98.2983 12.3415C98.4478 12.4441 98.5829 12.5698 98.7116 12.6981C99.8452 13.8282 100.402 14.3854 101.533 15.5196C101.66 15.6483 101.786 15.7839 101.888 15.9333C102.217 16.418 102.225 16.9195 101.909 17.4126C101.8 17.5812 101.663 17.7345 101.523 17.8785C101.098 18.3129 100.664 18.7385 100.236 19.1704C100.123 19.2839 99.3235 20.1024 99.1756 20.2651Z" fill="white"/>
<path d="M117.299 17.0847C117.839 16.4067 117.367 15.7119 117.367 15.7119L115.635 13.952L113.901 12.1917C113.901 12.1917 113.217 11.7134 112.55 12.2612C111.882 12.8085 102.398 22.5714 102.398 22.5714C102.398 22.5714 101.781 23.5048 102.42 24.1793L100.112 26.5225L101.685 28.1197L103.257 29.7163L105.564 27.3731C106.229 28.0216 107.147 27.3948 107.147 27.3948C107.147 27.3948 116.76 17.7627 117.299 17.0847Z" fill="#FBB040"/>
<path d="M87.8579 37.8831L92.0719 42.1622L101.217 32.8737L101.22 30.5285L102.116 29.6188L101.162 28.6503L100.209 27.6814L99.3126 28.5912L97.0039 28.5941L87.8579 37.8831Z" stroke="#FBB040" stroke-width="0.739646" stroke-miterlimit="10"/>
<path d="M92.1199 39.5261L90.4216 37.8012L100.132 27.94L101.83 29.6645L92.1199 39.5261Z" fill="#FBB040"/>
<path d="M91.3936 37.8827L88.2422 37.8985" stroke="#FBB040" stroke-width="0.739646" stroke-miterlimit="10"/>
<path d="M92.0239 38.5232L92.1008 41.8171" stroke="#FBB040" stroke-width="0.739646" stroke-miterlimit="10"/>
</svg>
